<?xml version="1.0" encoding="utf-8"?>
<svg viewBox="318.07 365.589 232.065 232.026" xmlns="http://www.w3.org/2000/svg">
  <path d="M 407.27 410.154 L 373.57 410.154 C 366.17 410.154 360.17 416.054 360.17 423.454 L 360.17 536.854 C 360.17 544.254 366.17 550.154 373.57 550.154 L 387.27 550.154 C 391.07 549.854 394.07 546.954 394.07 543.054 C 394.07 539.754 390.77 536.754 387.07 536.754 L 380.37 536.754 C 376.67 536.754 373.67 533.754 373.67 530.054 L 373.67 430.154 C 373.67 426.454 376.67 423.554 380.37 423.554 L 400.57 423.554 C 404.27 423.554 407.27 426.554 407.27 430.154 L 407.27 536.854 C 407.27 543.554 402.37 549.254 395.87 550.154 L 407.27 550.154 C 414.67 550.154 420.57 544.254 420.57 536.854 L 420.57 423.454 C 420.57 416.154 414.57 410.154 407.27 410.154 Z M 454.07 423.554 L 501.07 423.554 C 508.47 423.554 514.37 417.554 514.37 410.254 L 514.37 410.154 L 447.27 410.154 C 439.87 410.154 433.87 416.154 433.87 423.454 L 433.87 557.554 L 433.97 557.554 C 441.37 557.554 447.27 551.554 447.27 544.254 L 447.27 470.454 L 490.17 470.454 L 490.17 557.554 C 497.57 557.554 503.57 551.554 503.57 544.254 L 503.57 470.154 C 509.67 468.954 514.27 463.554 514.27 457.054 L 514.27 456.954 L 447.27 456.954 L 447.27 430.054 C 447.37 426.554 450.37 423.554 454.07 423.554 Z" fill="#FFFFFF"/>
</svg>