<?xml version="1.0" encoding="utf-8"?>
<svg viewBox="318.07 365.589 232.065 232.026" xmlns="http://www.w3.org/2000/svg">
  <path d="M 503.77 365.754 L 364.57 365.754 C 338.97 365.754 318.17 386.554 318.17 412.154 L 318.17 551.354 C 318.17 576.954 338.87 597.754 364.57 597.754 L 503.77 597.754 C 529.37 597.754 550.17 576.954 550.17 551.354 L 550.17 412.154 C 550.07 386.454 529.37 365.754 503.77 365.754 Z M 420.57 536.854 C 420.57 544.254 414.57 550.154 407.27 550.154 L 395.87 550.154 C 402.27 549.154 407.27 543.554 407.27 536.854 L 407.27 430.254 C 407.27 426.554 404.27 423.654 400.57 423.654 L 380.37 423.654 C 376.67 423.654 373.67 426.654 373.67 430.254 L 373.67 530.154 C 373.67 533.854 376.67 536.854 380.37 536.854 L 387.07 536.854 C 390.77 536.854 394.07 539.854 394.07 543.154 C 394.07 547.054 391.07 549.954 387.27 550.254 L 373.57 550.254 C 366.17 550.254 360.17 544.354 360.17 536.954 L 360.17 423.454 C 360.17 416.054 366.17 410.154 373.57 410.154 L 407.17 410.154 C 414.57 410.154 420.47 416.054 420.47 423.454 L 420.47 536.854 Z M 514.37 410.254 C 514.37 417.654 508.37 423.554 501.07 423.554 L 454.07 423.554 C 450.37 423.554 447.37 426.554 447.37 430.254 L 447.37 457.154 L 514.37 457.154 L 514.37 457.254 C 514.37 463.654 509.77 469.154 503.67 470.354 L 503.67 544.454 C 503.67 551.854 497.67 557.754 490.27 557.754 L 490.27 470.654 L 447.37 470.654 L 447.37 544.454 C 447.37 551.854 441.37 557.754 434.07 557.754 L 433.97 557.754 L 433.97 423.554 C 433.97 416.154 439.97 410.254 447.37 410.254 L 514.37 410.254 Z" fill="#FF4713" class="selected"/>
</svg>